<?xml version="1.0" encoding="utf-8"?>
<svg version="1.1" id="SOCIAL" xmlns="http://www.w3.org/2000/svg" xmlns:xlink="http://www.w3.org/1999/xlink" x="0px" y="0px"
	 viewBox="0 0 45.47278 16.57202" style="enable-background:new 0 0 45.47278 16.57202;" xml:space="preserve">
    <style>
        .btns{
            fill:#ffc200;
        }
    </style>
<path class="btns" d="M39.738,5.36574h-2.62286V3.64577c0-0.64625,0.42813-0.79653,0.72964-0.79653c0.30087,0,1.85102,0,1.85102,0V0.0096
	L37.14669,0c-2.82935,0-3.47322,2.11789-3.47322,3.47322v1.89287H32.0372v2.92608h1.63627c0,3.75486,0,8.27984,0,8.27984h3.44167
	c0,0,0-4.56922,0-8.27984h2.32269L39.738,5.36574z"/>
<path class="btns" d="M18.87135,3.3412c-0.58616,0.26055-1.217,0.43631-1.87886,0.51495c0.67581-0.40459,1.19397-1.04544,1.43836-1.80994
	c-0.63213,0.37514-1.33186,0.64733-2.07726,0.79427c-0.59684-0.63569-1.44712-1.03314-2.38767-1.03314
	c-1.80637,0-3.27093,1.46459-3.27093,3.27126c0,0.25602,0.02878,0.50557,0.08479,0.7454
	C8.06134,5.68744,5.65037,4.38535,4.03691,2.4058c-0.2816,0.4829-0.44279,1.04511-0.44279,1.64485
	c0,1.13508,0.57741,2.13651,1.45521,2.72264C4.51366,6.75614,4.00876,6.60887,3.56792,6.36388
	c-0.00066,0.01358-0.00066,0.02749-0.00066,0.0414c0,1.58467,1.12765,2.90649,2.62427,3.20752
	c-0.27447,0.07412-0.5635,0.11457-0.86192,0.11457c-0.21069,0-0.41592-0.02006-0.61527-0.05892
	c0.41622,1.29951,1.62446,2.24558,3.05536,2.27182c-1.11955,0.87744-2.52943,1.40049-4.06262,1.40049
	c-0.26379,0-0.52434-0.01556-0.78036-0.04596c1.44807,0.92859,3.16737,1.46978,5.01452,1.46978
	c6.0172,0,9.30723-4.98441,9.30723-9.30726c0-0.14176-0.00291-0.28322-0.00906-0.42402
	C17.87836,4.57373,18.4331,3.99728,18.87135,3.3412z"/>
</svg>
